<?xml version="1.0" standalone="no"?><!DOCTYPE svg PUBLIC "-//W3C//DTD SVG 1.1//EN" "http://www.w3.org/Graphics/SVG/1.1/DTD/svg11.dtd"><svg t="1503455967981" class="icon" style="" viewBox="0 0 1024 1024" version="1.1" xmlns="http://www.w3.org/2000/svg" p-id="3660" xmlns:xlink="http://www.w3.org/1999/xlink" width="200" height="200"><defs><style type="text/css"></style></defs><path d="M512 0C229.624242 0 0 229.624242 0 512s229.624242 512 512 512 512-229.624242 512-512S794.375758 0 512 0z m91.539394 691.975758c13.963636 13.963636 13.963636 35.684848 0 48.096969-6.206061 6.206061-15.515152 9.309091-24.824242 9.309091-9.309091 0-17.066667-3.10303-24.824243-9.309091L350.642424 536.824242c-13.963636-13.963636-13.963636-35.684848 0-48.096969l206.351515-206.351515c13.963636-13.963636 35.684848-13.963636 48.09697 0 13.963636 13.963636 13.963636 35.684848 0 48.096969L422.012121 512l181.527273 179.975758z" p-id="3661"></path></svg>